<svg width="28" height="30" viewBox="0 0 28 30" fill="none" xmlns="http://www.w3.org/2000/svg">
<path d="M9.42858 12.3678C8.73935 13.4427 7.40065 14.0189 6.00001 14.0612M18.8 12.3678C19.2089 13.2648 20.5388 13.7955 22 13.8135M11.2571 12.1484C12.3238 12.6602 15.0514 13.289 17.4286 11.7097M6.00001 14.0612C3.68465 14.1312 1.20001 12.7424 1.20001 9.73553C1.20001 4.9097 6.52209 5.16008 8.05715 6.0065C8.29396 4.48724 10.1195 1.4204 14.2286 1.40011C18.0685 1.38115 19.6381 4.47104 19.9429 6.0065C21.2024 4.81791 26.8 4.9097 26.8 9.73553C26.8 12.6588 24.2451 13.8413 22 13.8135M6.00001 14.0612L6.67966 21.142M9.42858 25.9678H7.14287L6.67966 21.142M9.42858 25.9678C9.65715 23.7742 12.4762 24.9441 14 25.9678M9.42858 25.9678C9.79429 28.4245 12.6286 26.9914 14 25.9678M22 13.8135L21.7714 16.3162M21.5429 18.071L21.2762 21.142M18.5714 25.9678H20.8571L21.2762 21.142M18.5714 25.9678C18.3429 23.7742 15.3714 25.0172 14 25.9678M18.5714 25.9678C18.3429 28.3807 15.3714 26.9183 14 25.9678M6.67966 21.142H11.2571M21.2762 21.142H16.7429M10.3429 15.8774L11.2571 21.142M11.2571 21.142H14M14 15V21.142M14 21.142H16.7429M17.6571 15.8774L16.7429 21.142M14 25.9678C14 26.5527 13.6343 27.8981 12.1714 28.6M14 25.9678C14 26.5527 14.3657 27.8981 15.8286 28.6" stroke="#43A047" stroke-width="1.43158" stroke-linecap="round"/>
</svg>
